<?xml version="1.0" encoding="utf-8"?>
<svg version="1.1" xmlns="http://www.w3.org/2000/svg" viewBox="0 0 2048 2006" width="1024" height="1003">
  <!-- Main blue body -->
  <path fill="#1C3F6C" d="M 134 684 C 134 677 134 670 134 664 C 134 570 179 469 246 402 C 310 337 388 298 479 286 C 505 283 537 284 564 284 L 675 284 L 966 285 C 974 285 982 285 991 285 L 991 932 C 1080 933 1117 938 1199 898 C 1208 971 1205 1066 1192 1139 C 1171 1247 1126 1349 1059 1436 C 947 1583 779 1679 595 1700 C 585 1701 526 1706 521 1704 C 520 1697 520 1679 520 1671 L 520 1614 C 520 1539 520 1464 521 1389 L 521 684 C 495 682 466 683 440 683 L 325 683 L 205 683 C 183 683 156 682 134 684 Z"/>
  
  <!-- Teal belly -->
  <path fill="#21747D" d="M 991 932 C 1080 933 1117 938 1199 898 C 1208 971 1205 1066 1192 1139 C 1171 1247 1126 1349 1059 1436 C 947 1583 779 1679 595 1700 C 585 1701 526 1706 521 1704 C 523 1690 521 1652 521 1635 L 521 1488 L 524 1488 C 644 1490 760 1439 846 1356 C 928 1275 979 1169 989 1054 C 993 1013 990 973 991 932 Z"/>
  
  <!-- Teal head circle -->
  <path fill="#21747D" d="M 966 285 C 974 285 982 285 991 285 L 991 932 C 948 933 900 918 862 898 C 784 855 731 787 706 702 C 681 619 690 530 731 454 C 769 382 834 325 911 299 C 929 293 948 291 966 285 Z"/>
  
  <!-- Orange beak base -->
  <path fill="#F97753" d="M 1052 285 C 1065 285 1082 285 1095 285 L 1177 285 L 1261 285 C 1341 285 1385 291 1462 312 C 1468 314 1473 315 1479 317 C 1548 341 1632 387 1686 436 C 1694 444 1703 452 1712 460 C 1714 462 1715 463 1717 465 C 1732 481 1750 499 1764 516 C 1860 633 1911 780 1910 932 C 1889 933 1848 933 1826 933 C 1810 933 1789 933 1773 933 L 1673 933 L 1578 933 C 1560 933 1538 934 1519 933 C 1518 921 1518 908 1517 897 C 1511 849 1489 798 1457 762 C 1446 750 1435 741 1423 731 C 1347 678 1302 684 1215 684 L 1052 684 C 1050 660 1051 624 1051 599 C 1051 561 1051 521 1052 484 L 1052 356 C 1052 333 1051 308 1052 285 Z"/>
  
  <!-- Yellow beak top -->
  <path fill="#F1C134" d="M 1052 285 C 1065 285 1082 285 1095 285 L 1177 285 L 1261 285 C 1341 285 1385 291 1462 312 C 1468 314 1473 315 1479 317 C 1548 341 1632 387 1686 436 C 1677 449 1644 485 1632 497 C 1606 525 1581 554 1556 583 C 1506 543 1456 515 1394 498 C 1325 479 1257 483 1186 483 L 1100 483 C 1088 483 1064 482 1053 484 L 1052 484 L 1052 356 C 1052 333 1051 308 1052 285 Z"/>
  
  <!-- Red beak stripe -->
  <path fill="#F35651" d="M 1556 583 C 1576 601 1592 616 1610 636 C 1672 709 1709 801 1714 897 C 1714 908 1715 920 1715 932 C 1727 932 1823 931 1826 933 C 1810 933 1789 933 1773 933 L 1673 933 L 1578 933 C 1560 933 1538 934 1519 933 C 1518 921 1518 908 1517 897 C 1511 849 1489 798 1457 762 C 1446 750 1435 741 1423 731 C 1431 724 1453 698 1461 689 C 1492 654 1523 616 1556 583 Z"/>
  
  <!-- Purple eye area -->
  <path fill="#A12963" d="M 1052 742 C 1112 742 1186 740 1244 743 C 1232 784 1224 797 1193 827 L 1192 828 C 1150 867 1107 877 1052 875 C 1052 873 1051 872 1051 871 C 1051 861 1051 851 1051 841 C 1048 814 1050 788 1050 761 C 1050 757 1050 745 1052 742 Z"/>
</svg>